#!OML:ASF I:\Actors\actors\Patient Classification 1\Patient 1\Session 1\Subject1.ASF
:FULLY-SPECIFIED
:DEGREES
561
root 0.169196 17.57 8.50656 7.63936 -5.68602 -6.20376
lowerback 0.881937 -1.07331 4.76346
upperback -9.43393 -1.06973 1.09832
thorax -10.6197 -0.887923 -1.37145
lowerneck -13.5928 -3.40077 -0.293823
upperneck 28.1604 -5.92306 3.28818
head 11.5342 -2.34062 0.431731
rclavicle 4.47266e-016 -1.98785e-015
rhumerus -1.27869 28.7634 -92.3061
rradius 133.799
rwrist 21.5592
rhand 50.6603 -57.1552
rfingers 7.12502
rthumb 70.3778 -51.6455
lclavicle 4.47266e-016 -1.98785e-015
lhumerus -19.9148 -31.461 103.799
lradius 137.856
lwrist -14.156
lhand 59.6611 11.6602
lfingers 7.12502
lthumb 74.5235 -19.5579
rfemur -4.66106 23.5577 21.6242
rtibia 6.96576
rfoot -12.4095 -20.7814
rtoes 1.0444
lfemur 9.98993 -44.8209 -19.7361
ltibia -4.29182
lfoot -28.8811 59.4114
ltoes 17.2413
562
root 0.146042 17.5727 8.49986 7.54616 -4.68934 -6.34696
lowerback 0.240072 -1.37195 4.40111
upperback -9.0499 -1.49554 1.67986
thorax -9.79282 -1.0175 -0.5349
lowerneck -14.0376 -3.13466 -0.996292
upperneck 27.9828 -5.35183 3.34888
head 11.5634 -2.14161 0.646953
rclavicle 2.90226e-014 -2.78299e-015
rhumerus -0.242927 30.0947 -91.5949
rradius 133.691
rwrist 21.8049
rhand 49.8527 -56.6122
rfingers 7.12502
rthumb 69.8549 -52.8047
lclavicle 2.90226e-014 -2.78299e-015
lhumerus -18.8671 -30.3204 103.424
lradius 137.789
lwrist -14.3463
lhand 59.6703 11.4495
lfingers 7.12502
lthumb 74.5257 -19.8008
rfemur -4.47993 23.1346 22.009
rtibia 7.05862
rfoot -12.6531 -21.2499
rtoes 1.57895
lfemur 9.71994 -45.1716 -19.2467
ltibia -4.1813
lfoot -27.7812 59.0302
ltoes 16.3462
563
root 0.124925 17.5726 8.49458 7.49099 -3.78986 -6.47707
lowerback 0.738783 -1.16634 4.73932
upperback -9.51851 -1.17486 1.35822
thorax -10.6296 -0.922077 -1.07022
lowerneck -13.5723 -3.35461 -0.685841
upperneck 28.0511 -5.77772 3.43492
head 11.5015 -2.29565 0.57412
rclavicle -1.74434e-014 1.09332e-014
rhumerus -1.64135 29.3294 -92.3129
rradius 133.765
rwrist 22.4306
rhand 49.2201 -55.8008
rfingers 7.12502
rthumb 69.433 -53.2638
lclavicle -1.74434e-014 1.09332e-014
lhumerus -19.8301 -30.8201 103.839
lradius 137.804
lwrist -14.2153
lhand 59.7197 11.4
lfingers 7.12502
lthumb 74.5373 -20.0236
rfemur -4.30907 22.7392 22.3607
rtibia 7.0617
rfoot -12.7651 -21.7414
rtoes 1.56913
lfemur 9.46931 -45.5006 -18.7852
ltibia -4.12852
lfoot -26.8687 58.6979
ltoes 15.568
564
root 0.104147 17.5728 8.49067 7.44655 -3.00015 -6.56506
lowerback 0.795114 -1.21125 4.75094
upperback -9.66919 -1.22365 1.36185
thorax -10.8396 -0.951087 -1.0624
lowerneck -13.3709 -3.32122 -0.573578
upperneck 28.0488 -5.7674 3.47983
head 11.458 -2.27553 0.577065
rclavicle 2.01269e-014 -1.55052e-014
rhumerus -2.99482 28.8088 -93.2176
rradius 133.697
rwrist 22.5412
rhand 48.6087 -54.1684
rfingers 7.12502
rthumb 69.0156 -52.809
lclavicle 2.01269e-014 -1.55052e-014
lhumerus -19.9953 -30.721 103.785
lradius 137.726
lwrist -14.0417
lhand 59.484 11.2473
lfingers 7.12502
lthumb 74.4804 -19.3512
rfemur -4.11175 22.5001 22.6582
rtibia 6.93651
rfoot -12.747 -22.3365
rtoes 1.15968
lfemur 9.20702 -45.6791 -18.3375
ltibia -4.12427
lfoot -25.9339 58.3017
ltoes 14.6985
565
root 0.0849382 17.5739 8.48571 7.41663 -2.36322 -6.6083
lowerback 0.687122 -1.27018 4.64824
upperback -9.67894 -1.31302 1.37906
thorax -10.7859 -0.983242 -0.980233
lowerneck -13.2179 -3.23287 -0.241877
upperneck 27.9254 -5.70886 3.46502
head 11.3678 -2.21943 0.526805
rclavicle 3.90115e-014 1.03368e-014
rhumerus -3.10209 28.622 -93.2235
rradius 133.725
rwrist 22.0502
rhand 48.2779 -53.1867
rfingers 7.12502
rthumb 68.786 -52.4445
lclavicle 3.90115e-014 1.03368e-014
lhumerus -19.859 -30.6016 103.476
lradius 137.524
lwrist -13.8854
lhand 58.7192 10.2562
lfingers 7.12502
lthumb 74.2731 -17.7093
rfemur -3.94039 22.4061 22.8695
rtibia 6.79048
rfoot -12.8041 -22.8822
rtoes 1.41976
lfemur 8.89156 -45.6767 -17.8984
ltibia -4.11469
lfoot -25.185 57.8169
ltoes 13.986
566
root 0.0688168 17.5737 8.48098 7.42216 -1.89049 -6.66006
lowerback 0.580378 -1.23496 4.66027
upperback -9.67775 -1.2757 1.30669
thorax -10.7201 -0.968484 -1.07124
lowerneck -13.2654 -3.25925 -0.140409
upperneck 27.8512 -5.82827 3.67405
head 11.3573 -2.2363 0.568905
rclavicle -3.21037e-014 3.53837e-014
rhumerus -2.27188 28.7303 -92.3327
rradius 133.903
rwrist 21.3085
rhand 47.4907 -52.6869
rfingers 7.12502
rthumb 68.2297 -53.3594
lclavicle -3.21037e-014 3.53837e-014
lhumerus -19.8368 -30.6527 103.164
lradius 137.222
lwrist -13.9291
lhand 56.7998 8.3154
lfingers 7.12502
lthumb 73.6104 -13.3872
rfemur -3.81169 22.3552 23.0436
rtibia 6.65119
rfoot -12.9481 -23.2711
rtoes 2.132
lfemur 8.723 -45.916 -17.6096
ltibia -4.12878
lfoot -25.1618 57.6333
ltoes 13.8385
567
root 0.0548275 17.5719 8.47836 7.47667 -1.55557 -6.71745
lowerback 0.285877 -1.23086 4.64195
upperback -9.55683 -1.28947 1.33568
thorax -10.4034 -0.965359 -1.03949
lowerneck -13.6663 -3.23663 -0.394476
upperneck 27.8668 -5.81461 3.95165
head 11.4625 -2.21319 0.708485
rclavicle -1.47101e-014 6.75868e-015
rhumerus -2.19104 28.67 -91.8246
rradius 133.917
rwrist 21.0422
rhand 45.7982 -50.0848
rfingers 7.12502
rthumb 66.99 -53.5558
lclavicle -1.47101e-014 6.75868e-015
lhumerus -19.8324 -30.4737 102.766
lradius 136.869
lwrist -14.4011
lhand 52.9863 5.57201
lfingers 7.12502
lthumb 71.7719 -5.37459
rfemur -3.70616 22.2896 23.181
rtibia 6.40911
rfoot -12.9135 -23.5679
rtoes 2.09502
lfemur 8.60458 -46.2253 -17.3729
ltibia -4.1698
lfoot -25.2574 57.626
ltoes 13.6754
568
root 0.0430081 17.5692 8.47679 7.52345 -1.37816 -6.72918
lowerback -0.261475 -1.34185 4.39216
upperback -9.22457 -1.47879 1.55336
thorax -9.69249 -1.01195 -0.675918
lowerneck -14.2707 -3.06067 -0.716684
upperneck 27.7538 -5.47461 3.97445
head 11.5411 -2.08043 0.809801
rclavicle 3.2054e-014 5.1684e-015
rhumerus -2.38107 28.8374 -91.3814
rradius 133.8
rwrist 21.3184
rhand 43.2126 -45.9386
rfingers 7.12502
rthumb 64.9988 -53.1175
lclavicle 3.2054e-014 5.1684e-015
lhumerus -19.7204 -29.6639 102.093
lradius 136.432
lwrist -15.3129
lhand 47.3765 1.64646
lfingers 7.12502
lthumb 68.1478 2.51804
rfemur -3.55185 22.3356 23.2542
rtibia 6.07199
rfoot -12.795 -23.8325
rtoes 1.94338
lfemur 8.48057 -46.2246 -17.1642
ltibia -4.25303
lfoot -24.8688 57.5519
ltoes 12.9269
569
root 0.0336288 17.5672 8.4768 7.54458 -1.38608 -6.71709
lowerback 0.464988 -1.34955 4.55674
upperback -9.80546 -1.42074 1.51544
thorax -10.7948 -1.02099 -0.774708
lowerneck -13.9508 -3.03422 -1.15488
upperneck 28.0668 -5.37445 4.09553
head 11.6105 -2.06691 0.949096
rclavicle -2.68359e-015 1.05356e-014
rhumerus -4.888 28.7759 -92.019
rradius 133.704
rwrist 22.2951
rhand 38.9292 -40.8856
rfingers 7.12502
rthumb 61.5017 -52.9865
lclavicle -2.68359e-015 1.05356e-014
lhumerus -21.9818 -28.5526 102.254
lradius 136.001
lwrist -16.5584
lhand 39.9489 -3.4402
lfingers 7.12502
lthumb 62.3528 7.60734
rfemur -3.34447 22.5597 23.2988
rtibia 5.71001
rfoot -12.748 -24.0381
rtoes 2.22702
lfemur 8.50927 -46.2159 -17.1232
ltibia -4.34561
lfoot -24.8454 57.589
ltoes 12.5859
570
root 0.0267511 17.5657 8.47908 7.56671 -1.52536 -6.73616
lowerback 0.665845 -1.29907 4.66704
upperback -9.96735 -1.32751 1.5191
thorax -11.1026 -0.991544 -0.831028
lowerneck -13.8487 -2.99676 -1.1848
upperneck 27.8446 -5.19796 3.76605
head 11.4869 -2.03704 0.858876
rclavicle 9.93923e-016 1.59028e-015
rhumerus -6.9372 28.556 -92.2106
rradius 133.337
rwrist 23.3694
rhand 32.9595 -35.7467
rfingers 7.12502
rthumb 56.3462 -52.8647
lclavicle 9.93923e-016 1.59028e-015
lhumerus -23.8126 -27.2342 102.04
lradius 135.342
lwrist -17.9852
lhand 29.9582 -9.17119
lfingers 7.12502
lthumb 53.6694 9.88796
rfemur -3.11044 22.8473 23.374
rtibia 5.288
rfoot -12.6055 -24.1974
rtoes 2.29192
lfemur 8.61545 -46.2607 -17.1432
ltibia -4.38853
lfoot -25.4523 57.6546
ltoes 13.0313
571
root 0.0213527 17.5636 8.4825 7.58773 -1.73795 -6.80792
lowerback 0.550923 -1.06386 4.88727
upperback -9.84856 -1.02125 1.34506
thorax -10.8908 -0.867132 -1.17842
lowerneck -13.6437 -2.98586 -0.528125
upperneck 26.8905 -5.11537 3.15508
head 11.0409 -2.02526 0.539371
rclavicle 1.33186e-014 1.98785e-015
rhumerus -8.89697 27.7281 -92.1884
rradius 132.81
rwrist 24.3278
rhand 25.8236 -31.5183
rfingers 7.12502
rthumb 49.9162 -52.785
lclavicle 1.33186e-014 1.98785e-015
lhumerus -25.5109 -26.1824 101.598
lradius 134.532
lwrist -19.2353
lhand 17.924 -15.5318
lfingers 7.12502
lthumb 42.5965 8.85524
rfemur -2.82798 23.2045 23.5163
rtibia 4.76552
rfoot -12.3434 -24.3873
rtoes 2.13377
lfemur 8.67401 -46.1076 -17.0672
ltibia -4.40601
lfoot -25.921 57.6053
ltoes 13.4019
572
root 0.0159429 17.5613 8.48655 7.61432 -1.96245 -6.85518
lowerback 0.45862 -0.799361 5.05835
upperback -9.74236 -0.679449 1.14462
thorax -10.6998 -0.72164 -1.52743
lowerneck -13.1994 -2.91302 -0.252489
upperneck 25.7553 -5.06277 3.34164
head 10.5279 -1.97678 0.575896
rclavicle 1.20265e-014 -1.59028e-014
rhumerus -11.3486 26.9673 -92.3049
rradius 132.033
rwrist 25.8951
rhand 17.5496 -28.7791
rfingers 7.12502
rthumb 42.2459 -53.2863
lclavicle 1.20265e-014 -1.59028e-014
lhumerus -27.5496 -24.9693 101.204
lradius 133.709
lwrist -19.8239
lhand 6.27789 -22.1339
lfingers 7.12502
lthumb 31.5881 5.15378
rfemur -2.49746 23.7114 23.6479
rtibia 4.18444
rfoot -12.1205 -24.694
rtoes 2.03539
lfemur 8.63578 -45.7955 -16.9511
ltibia -4.38185
lfoot -25.8702 57.4935
ltoes 13.3754
573
root 0.0115121 17.5584 8.49223 7.66057 -2.18129 -6.85896
lowerback 0.405923 -0.600875 5.13181
upperback -9.70075 -0.420489 1.03846
thorax -10.6052 -0.604929 -1.70921
lowerneck -12.8715 -2.80797 -0.171513
upperneck 24.9408 -4.93531 3.54278
head 10.168 -1.90583 0.655988
rclavicle 8.74653e-015 -2.5842e-014
rhumerus -14.1121 25.8444 -92.458
rradius 131.301
rwrist 25.796
rhand 9.78304 -25.6375
rfingers 7.12502
rthumb 34.9205 -52.2121
lclavicle 8.74653e-015 -2.5842e-014
lhumerus -29.898 -23.3272 100.905
lradius 132.929
lwrist -19.6837
lhand -3.38145 -28.0784
lfingers 7.12502
lthumb 22.3478 0.649144
rfemur -2.19212 24.2957 23.7276
rtibia 3.64982
rfoot -11.9892 -25.0646
rtoes 2.12094
lfemur 8.55154 -45.4948 -16.8648
ltibia -4.33049
lfoot -25.7667 57.3884
ltoes 13.2507
574
root 0.0119528 17.551 8.49804 7.61625 -2.3493 -7.15675
lowerback 0.48509 -0.408323 5.6007
upperback -9.64292 -0.131113 0.99714
thorax -10.5775 -0.505158 -2.04282
lowerneck -12.7508 -2.83386 -0.141195
upperneck 24.3653 -4.96108 3.60856
head 9.93911 -1.91955 0.673169
rclavicle -1.65985e-014 -7.95139e-016
rhumerus -17.1697 24.4416 -92.7364
rradius 130.753
rwrist 24.883
rhand 3.16503 -23.8714
rfingers 7.12502
rthumb 28.6182 -51.7002
lclavicle -1.65985e-014 -7.95139e-016
lhumerus -32.3527 -21.453 100.5
lradius 132.088
lwrist -18.844
lhand -11.4638 -33.524
lfingers 7.12502
lthumb 14.5737 -4.056
rfemur -1.8182 24.6338 24.1839
rtibia 3.23065
rfoot -11.8899 -25.2233
rtoes 2.29295
lfemur 8.61049 -44.946 -16.5047
ltibia -4.37662
lfoot -25.3814 57.087
ltoes 12.8225
575
root 0.0131308 17.5427 8.50548 7.58486 -2.4899 -7.41085
lowerback 0.554647 -0.205662 6.05873
upperback -9.59618 0.168427 0.919515
thorax -10.5512 -0.401363 -2.41051
lowerneck -12.5862 -2.91434 -0.237555
upperneck 23.7131 -5.0752 3.85311
head 9.6877 -1.96834 0.763515
rclavicle 2.38542e-015 3.97569e-015
rhumerus -20.6472 22.7253 -93.2446
rradius 130.077
rwrist 24.9198
rhand -3.1768 -22.9312
rfingers 7.12502
rthumb 22.5443 -51.635
lclavicle 2.38542e-015 3.97569e-015
lhumerus -34.8851 -19.4035 99.8661
lradius 131.048
lwrist -17.8012
lhand -18.5735 -38.9655
lfingers 7.12502
lthumb 7.71678 -9.12627
rfemur -1.52572 24.7888 24.5516
rtibia 2.92272
rfoot -11.8022 -25.2247
rtoes 2.3345
lfemur 8.66592 -44.3987 -16.191
ltibia -4.43615
lfoot -25.0151 56.737
ltoes 12.5672
